<mxfile host="app.diagrams.net" modified="2023-12-14T10:28:26.091Z" agent="Mozilla/5.0 (Windows NT 10.0; Win64; x64) AppleWebKit/537.36 (KHTML, like Gecko) Chrome/120.0.0.0 Safari/537.36 Edg/120.0.0.0" etag="sHPVS9DnIY9NrHVilGFs" version="22.1.8" type="device">
  <diagram name="Pagina-1" id="6ebKSwHgrZWEVFDDrTTQ">
    <mxGraphModel dx="1282" dy="639" grid="1" gridSize="10" guides="1" tooltips="1" connect="1" arrows="1" fold="1" page="1" pageScale="1" pageWidth="1654" pageHeight="1169" math="0" shadow="0">
      <root>
        <mxCell id="0" />
        <mxCell id="1" parent="0" />
        <mxCell id="kevgRXuQHrOdtCCWnZsS-1" style="edgeStyle=orthogonalEdgeStyle;rounded=1;orthogonalLoop=1;jettySize=auto;html=1;exitX=1;exitY=0;exitDx=0;exitDy=0;entryX=0.5;entryY=1;entryDx=0;entryDy=0;endArrow=block;fontSize=13;strokeColor=#3a414a;strokeWidth=0.8;arcSize=12;startArrow=none;endFill=1;" parent="1" source="R9qcSIOGfT1Ncwx8mGfi-1" target="R9qcSIOGfT1Ncwx8mGfi-16" edge="1">
          <mxGeometry relative="1" as="geometry">
            <Array as="points">
              <mxPoint x="822" y="430" />
              <mxPoint x="877" y="430" />
            </Array>
          </mxGeometry>
        </mxCell>
        <mxCell id="kevgRXuQHrOdtCCWnZsS-2" value="hasVIN" style="edgeLabel;html=1;align=center;verticalAlign=middle;resizable=0;points=[];fontStyle=1;fontSize=13.3;fontColor=#333333;" parent="kevgRXuQHrOdtCCWnZsS-1" vertex="1" connectable="0">
          <mxGeometry x="0.255" relative="1" as="geometry">
            <mxPoint x="-19" as="offset" />
          </mxGeometry>
        </mxCell>
        <mxCell id="R9qcSIOGfT1Ncwx8mGfi-1" value="Car" style="html=1;overflow=block;blockSpacing=1;whiteSpace=wrap;ellipse;fontSize=16.7;spacing=3.8;strokeColor=default;fillOpacity=100;rounded=1;absoluteArcSize=1;arcSize=9;fillColor=#edf5ff;strokeWidth=NaN;lucidId=Os1O2qnXkTLK;" parent="1" vertex="1">
          <mxGeometry x="745" y="470" width="90" height="90" as="geometry" />
        </mxCell>
        <mxCell id="R9qcSIOGfT1Ncwx8mGfi-2" value="" style="html=1;jettySize=18;whiteSpace=wrap;fontSize=13;strokeColor=#3a414a;strokeOpacity=100;strokeWidth=0.8;rounded=1;arcSize=12;edgeStyle=orthogonalEdgeStyle;startArrow=none;endArrow=block;endFill=1;exitX=1.004;exitY=0.5;exitPerimeter=0;entryX=-0.004;entryY=0.5;entryPerimeter=0;lucidId=1s1Ouu4uFood;" parent="1" source="R9qcSIOGfT1Ncwx8mGfi-1" target="R9qcSIOGfT1Ncwx8mGfi-4" edge="1">
          <mxGeometry width="100" height="100" relative="1" as="geometry">
            <Array as="points" />
          </mxGeometry>
        </mxCell>
        <mxCell id="R9qcSIOGfT1Ncwx8mGfi-3" value="hasModelYear" style="text;html=1;resizable=0;labelBackgroundColor=default;align=center;verticalAlign=middle;fontStyle=1;fontColor=#333333;fontSize=13.3;" parent="R9qcSIOGfT1Ncwx8mGfi-2" vertex="1">
          <mxGeometry x="-0.2734198802061023" relative="1" as="geometry" />
        </mxCell>
        <mxCell id="R9qcSIOGfT1Ncwx8mGfi-4" value="ModelYear" style="html=1;overflow=block;blockSpacing=1;whiteSpace=wrap;ellipse;fontSize=16.7;spacing=3.8;strokeColor=default;fillOpacity=100;rounded=1;absoluteArcSize=1;arcSize=9;fillColor=#edf5ff;strokeWidth=NaN;lucidId=1s1OTW7Ci2Y1;" parent="1" vertex="1">
          <mxGeometry x="1045" y="470" width="90" height="90" as="geometry" />
        </mxCell>
        <mxCell id="R9qcSIOGfT1Ncwx8mGfi-5" value="" style="html=1;jettySize=18;whiteSpace=wrap;fontSize=13;strokeColor=#3a414a;strokeOpacity=100;strokeWidth=0.8;rounded=1;arcSize=12;edgeStyle=orthogonalEdgeStyle;startArrow=none;endArrow=block;endFill=1;exitX=1.004;exitY=0.5;exitPerimeter=0;entryX=0;entryY=0.5;lucidId=it1O_J1TxxnW;entryDx=0;entryDy=0;" parent="1" source="R9qcSIOGfT1Ncwx8mGfi-4" target="35qdhlxiOfRnaW9zcAuj-1" edge="1">
          <mxGeometry width="100" height="100" relative="1" as="geometry">
            <Array as="points" />
            <mxPoint x="1254.6399999999999" y="515" as="targetPoint" />
          </mxGeometry>
        </mxCell>
        <mxCell id="R9qcSIOGfT1Ncwx8mGfi-6" value="hasYear" style="text;html=1;resizable=0;labelBackgroundColor=default;align=center;verticalAlign=middle;fontStyle=1;fontColor=#333333;fontSize=13.3;" parent="R9qcSIOGfT1Ncwx8mGfi-5" vertex="1">
          <mxGeometry x="-0.32405319135538957" relative="1" as="geometry" />
        </mxCell>
        <mxCell id="R9qcSIOGfT1Ncwx8mGfi-8" value="" style="html=1;jettySize=18;whiteSpace=wrap;fontSize=13;strokeColor=#3a414a;strokeOpacity=100;strokeWidth=0.8;rounded=1;arcSize=12;edgeStyle=orthogonalEdgeStyle;startArrow=none;endArrow=block;endFill=1;exitX=0.5;exitY=-0.004;exitPerimeter=0;entryX=0.5;entryY=1.004;entryPerimeter=0;lucidId=ot1Ofiux3nKR;" parent="1" source="R9qcSIOGfT1Ncwx8mGfi-4" target="R9qcSIOGfT1Ncwx8mGfi-10" edge="1">
          <mxGeometry width="100" height="100" relative="1" as="geometry">
            <Array as="points" />
          </mxGeometry>
        </mxCell>
        <mxCell id="R9qcSIOGfT1Ncwx8mGfi-9" value="ofModel" style="text;html=1;resizable=0;labelBackgroundColor=default;align=center;verticalAlign=middle;fontStyle=1;fontColor=#333333;fontSize=13.3;" parent="R9qcSIOGfT1Ncwx8mGfi-8" vertex="1">
          <mxGeometry relative="1" as="geometry" />
        </mxCell>
        <mxCell id="R9qcSIOGfT1Ncwx8mGfi-10" value="Model" style="html=1;overflow=block;blockSpacing=1;whiteSpace=wrap;ellipse;fontSize=16.7;spacing=3.8;strokeColor=default;fillOpacity=100;rounded=1;absoluteArcSize=1;arcSize=9;fillColor=#edf5ff;strokeWidth=NaN;lucidId=ot1OwlmNDwQG;" parent="1" vertex="1">
          <mxGeometry x="1045" y="320" width="90" height="90" as="geometry" />
        </mxCell>
        <mxCell id="R9qcSIOGfT1Ncwx8mGfi-11" value="" style="html=1;jettySize=18;whiteSpace=wrap;fontSize=13;strokeColor=#3a414a;strokeOpacity=100;strokeWidth=0.8;rounded=1;arcSize=12;edgeStyle=orthogonalEdgeStyle;startArrow=none;endArrow=block;endFill=1;exitX=0.5;exitY=-0.004;exitPerimeter=0;entryX=0.5;entryY=1.004;entryPerimeter=0;lucidId=Ct1O5iaR3bhI;" parent="1" source="R9qcSIOGfT1Ncwx8mGfi-10" target="R9qcSIOGfT1Ncwx8mGfi-13" edge="1">
          <mxGeometry width="100" height="100" relative="1" as="geometry">
            <Array as="points" />
          </mxGeometry>
        </mxCell>
        <mxCell id="R9qcSIOGfT1Ncwx8mGfi-12" value="madeBy" style="text;html=1;resizable=0;labelBackgroundColor=default;align=center;verticalAlign=middle;fontStyle=1;fontColor=#333333;fontSize=13.3;" parent="R9qcSIOGfT1Ncwx8mGfi-11" vertex="1">
          <mxGeometry x="-0.18734325125231144" relative="1" as="geometry" />
        </mxCell>
        <mxCell id="R9qcSIOGfT1Ncwx8mGfi-13" value="Maker" style="html=1;overflow=block;blockSpacing=1;whiteSpace=wrap;ellipse;fontSize=16.7;spacing=3.8;strokeColor=default;fillOpacity=100;rounded=1;absoluteArcSize=1;arcSize=9;fillColor=#edf5ff;strokeWidth=1;lucidId=Ct1OrBrMs6CW;perimeterSpacing=0;gradientColor=none;" parent="1" vertex="1">
          <mxGeometry x="1045" y="170" width="90" height="90" as="geometry" />
        </mxCell>
        <mxCell id="R9qcSIOGfT1Ncwx8mGfi-16" value="VIN^^xsd:string" style="html=1;overflow=block;blockSpacing=1;whiteSpace=wrap;fontSize=16.7;spacing=9;strokeColor=default;rounded=1;absoluteArcSize=1;arcSize=9;fillColor=default;strokeWidth=1;lucidId=3t1OEM6T._IZ;fontColor=#333333;verticalAlign=middle;horizontal=1;" parent="1" vertex="1">
          <mxGeometry x="805" y="350" width="144" height="30" as="geometry" />
        </mxCell>
        <mxCell id="R9qcSIOGfT1Ncwx8mGfi-20" value="" style="html=1;jettySize=18;whiteSpace=wrap;fontSize=13;strokeColor=#3a414a;strokeOpacity=100;strokeWidth=0.8;rounded=1;arcSize=12;edgeStyle=orthogonalEdgeStyle;startArrow=none;endArrow=block;endFill=1;entryX=0.5;entryY=1.012;entryPerimeter=0;lucidId=_u1O~x01ch-v;" parent="1" target="R9qcSIOGfT1Ncwx8mGfi-22" edge="1">
          <mxGeometry width="100" height="100" relative="1" as="geometry">
            <Array as="points" />
            <mxPoint x="760" y="480" as="sourcePoint" />
          </mxGeometry>
        </mxCell>
        <mxCell id="R9qcSIOGfT1Ncwx8mGfi-21" value="hasRange" style="text;html=1;resizable=0;labelBackgroundColor=default;align=center;verticalAlign=middle;fontStyle=1;fontColor=#333333;fontSize=13.3;" parent="R9qcSIOGfT1Ncwx8mGfi-20" vertex="1">
          <mxGeometry x="0.21647760679977202" relative="1" as="geometry" />
        </mxCell>
        <mxCell id="R9qcSIOGfT1Ncwx8mGfi-22" value="range^^xsd:Integer" style="html=1;overflow=block;blockSpacing=1;whiteSpace=wrap;fontSize=16.7;spacing=9;strokeColor=default;rounded=1;absoluteArcSize=1;arcSize=9;fillColor=default;strokeWidth=1;lucidId=.u1OfOf~fiUd;fontColor=#333333;verticalAlign=middle;horizontal=1;" parent="1" vertex="1">
          <mxGeometry x="610" y="350" width="165" height="30" as="geometry" />
        </mxCell>
        <mxCell id="R9qcSIOGfT1Ncwx8mGfi-23" value="" style="html=1;jettySize=18;whiteSpace=wrap;fontSize=13;strokeColor=#3a414a;strokeOpacity=100;strokeWidth=0.8;rounded=1;arcSize=12;edgeStyle=orthogonalEdgeStyle;startArrow=none;endArrow=block;endFill=1;exitX=-0.004;exitY=0.5;exitPerimeter=0;entryX=1.004;entryY=0.5;entryPerimeter=0;lucidId=Ew1O.1Jr6tQS;" parent="1" source="R9qcSIOGfT1Ncwx8mGfi-1" target="R9qcSIOGfT1Ncwx8mGfi-25" edge="1">
          <mxGeometry width="100" height="100" relative="1" as="geometry">
            <Array as="points" />
          </mxGeometry>
        </mxCell>
        <mxCell id="R9qcSIOGfT1Ncwx8mGfi-24" value="isRegisteredIn" style="text;html=1;resizable=0;labelBackgroundColor=default;align=center;verticalAlign=middle;fontStyle=1;fontColor=#333333;fontSize=13.3;" parent="R9qcSIOGfT1Ncwx8mGfi-23" vertex="1">
          <mxGeometry relative="1" as="geometry" />
        </mxCell>
        <mxCell id="R9qcSIOGfT1Ncwx8mGfi-25" value="ZipCode" style="html=1;overflow=block;blockSpacing=1;whiteSpace=wrap;ellipse;fontSize=16.7;spacing=3.8;strokeColor=default;fillOpacity=100;rounded=1;absoluteArcSize=1;arcSize=9;fillColor=#fcfcca;strokeWidth=NaN;lucidId=Ew1OWQCflFgT;" parent="1" vertex="1">
          <mxGeometry x="460" y="470" width="90" height="90" as="geometry" />
        </mxCell>
        <mxCell id="R9qcSIOGfT1Ncwx8mGfi-26" value="" style="html=1;jettySize=18;whiteSpace=wrap;fontSize=13;strokeColor=#3a414a;strokeOpacity=100;strokeWidth=0.8;rounded=1;arcSize=12;edgeStyle=orthogonalEdgeStyle;startArrow=none;endArrow=block;endFill=1;exitX=0.5;exitY=1.004;exitPerimeter=0;entryX=0.5;entryY=-0.004;entryPerimeter=0;lucidId=Vw1Oxh8Qyr1-;" parent="1" source="R9qcSIOGfT1Ncwx8mGfi-25" target="R9qcSIOGfT1Ncwx8mGfi-28" edge="1">
          <mxGeometry width="100" height="100" relative="1" as="geometry">
            <Array as="points" />
          </mxGeometry>
        </mxCell>
        <mxCell id="R9qcSIOGfT1Ncwx8mGfi-27" value="ofCity" style="text;html=1;resizable=0;labelBackgroundColor=default;align=center;verticalAlign=middle;fontStyle=1;fontColor=#333333;fontSize=13.3;" parent="R9qcSIOGfT1Ncwx8mGfi-26" vertex="1">
          <mxGeometry x="-0.18227992013741345" relative="1" as="geometry" />
        </mxCell>
        <mxCell id="R9qcSIOGfT1Ncwx8mGfi-28" value="City" style="html=1;overflow=block;blockSpacing=1;whiteSpace=wrap;ellipse;fontSize=16.7;spacing=3.8;strokeColor=default;fillOpacity=100;rounded=1;absoluteArcSize=1;arcSize=9;fillColor=#fcfcca;strokeWidth=NaN;lucidId=Vw1Oo~C-vCxp;" parent="1" vertex="1">
          <mxGeometry x="460" y="635" width="90" height="90" as="geometry" />
        </mxCell>
        <mxCell id="R9qcSIOGfT1Ncwx8mGfi-29" value="" style="html=1;jettySize=18;whiteSpace=wrap;fontSize=13;strokeColor=#3a414a;strokeOpacity=100;strokeWidth=0.8;rounded=1;arcSize=12;edgeStyle=orthogonalEdgeStyle;startArrow=none;endArrow=block;endFill=1;exitX=0.5;exitY=1.004;exitPerimeter=0;entryX=0.5;entryY=-0.004;entryPerimeter=0;lucidId=-w1O87nsNx36;" parent="1" source="R9qcSIOGfT1Ncwx8mGfi-28" edge="1">
          <mxGeometry width="100" height="100" relative="1" as="geometry">
            <Array as="points" />
            <mxPoint x="505" y="799.6399999999999" as="targetPoint" />
          </mxGeometry>
        </mxCell>
        <mxCell id="R9qcSIOGfT1Ncwx8mGfi-30" value="belongsTo" style="text;html=1;resizable=0;labelBackgroundColor=default;align=center;verticalAlign=middle;fontStyle=1;fontColor=#333333;fontSize=13.3;" parent="R9qcSIOGfT1Ncwx8mGfi-29" vertex="1">
          <mxGeometry x="-0.1232110425202213" relative="1" as="geometry" />
        </mxCell>
        <mxCell id="R9qcSIOGfT1Ncwx8mGfi-31" value="County" style="html=1;overflow=block;blockSpacing=1;whiteSpace=wrap;ellipse;fontSize=16.7;spacing=3.8;strokeColor=default;fillOpacity=100;rounded=1;absoluteArcSize=1;arcSize=9;fillColor=#fcfcca;strokeWidth=NaN;lucidId=-w1OLK29v8BK;" parent="1" vertex="1">
          <mxGeometry x="460" y="800" width="90" height="90" as="geometry" />
        </mxCell>
        <mxCell id="R9qcSIOGfT1Ncwx8mGfi-32" value="Station" style="html=1;overflow=block;blockSpacing=1;whiteSpace=wrap;ellipse;fontSize=16.7;spacing=3.8;strokeColor=default;fillOpacity=100;rounded=1;absoluteArcSize=1;arcSize=9;fillColor=#e3fae3;strokeWidth=NaN;lucidId=rx1O~R7pykx_;" parent="1" vertex="1">
          <mxGeometry x="170" y="470" width="90" height="90" as="geometry" />
        </mxCell>
        <mxCell id="R9qcSIOGfT1Ncwx8mGfi-33" value="" style="html=1;jettySize=18;whiteSpace=wrap;fontSize=13;strokeColor=#3a414a;strokeOpacity=100;strokeWidth=0.8;rounded=1;arcSize=12;edgeStyle=orthogonalEdgeStyle;startArrow=none;endArrow=block;endFill=1;exitX=1.004;exitY=0.5;exitPerimeter=0;entryX=-0.004;entryY=0.5;entryPerimeter=0;lucidId=Dx1OYmT3YGP5;" parent="1" source="R9qcSIOGfT1Ncwx8mGfi-32" target="R9qcSIOGfT1Ncwx8mGfi-25" edge="1">
          <mxGeometry width="100" height="100" relative="1" as="geometry">
            <Array as="points" />
          </mxGeometry>
        </mxCell>
        <mxCell id="R9qcSIOGfT1Ncwx8mGfi-34" value="locatedIn" style="text;html=1;resizable=0;labelBackgroundColor=default;align=center;verticalAlign=middle;fontStyle=1;fontColor=#333333;fontSize=13.3;" parent="R9qcSIOGfT1Ncwx8mGfi-33" vertex="1">
          <mxGeometry relative="1" as="geometry" />
        </mxCell>
        <mxCell id="R9qcSIOGfT1Ncwx8mGfi-35" value="" style="html=1;jettySize=18;whiteSpace=wrap;fontSize=13;strokeColor=#3a414a;strokeOpacity=100;strokeWidth=0.8;rounded=1;arcSize=12;edgeStyle=orthogonalEdgeStyle;startArrow=none;endArrow=block;endFill=1;exitX=0.508;exitY=-0.004;exitPerimeter=0;entryX=0.505;entryY=1.012;entryPerimeter=0;lucidId=Wx1O5GCra6RN;" parent="1" source="R9qcSIOGfT1Ncwx8mGfi-25" target="R9qcSIOGfT1Ncwx8mGfi-37" edge="1">
          <mxGeometry width="100" height="100" relative="1" as="geometry">
            <Array as="points" />
          </mxGeometry>
        </mxCell>
        <mxCell id="R9qcSIOGfT1Ncwx8mGfi-36" value="hasAgi" style="text;html=1;resizable=0;labelBackgroundColor=default;align=center;verticalAlign=middle;fontStyle=1;fontColor=#333333;fontSize=13.3;" parent="R9qcSIOGfT1Ncwx8mGfi-35" vertex="1">
          <mxGeometry relative="1" as="geometry" />
        </mxCell>
        <mxCell id="R9qcSIOGfT1Ncwx8mGfi-37" value="AGI^^xsd:Integer" style="html=1;overflow=block;blockSpacing=1;whiteSpace=wrap;fontSize=16.7;spacing=9;strokeColor=default;rounded=1;absoluteArcSize=1;arcSize=9;fillColor=default;strokeWidth=1;lucidId=Xx1OfmO..szG;fontColor=#333333;verticalAlign=middle;horizontal=1;" parent="1" vertex="1">
          <mxGeometry x="430" y="350" width="150" height="30" as="geometry" />
        </mxCell>
        <mxCell id="R9qcSIOGfT1Ncwx8mGfi-38" value="" style="html=1;jettySize=18;whiteSpace=wrap;fontSize=13;strokeColor=#3a414a;strokeOpacity=100;strokeWidth=0.8;rounded=1;arcSize=12;edgeStyle=orthogonalEdgeStyle;startArrow=none;endArrow=block;endFill=1;exitX=0.5;exitY=1.004;exitPerimeter=0;entryX=0.5;entryY=-0.012;entryPerimeter=0;lucidId=6B1OSi53PP30;" parent="1" source="R9qcSIOGfT1Ncwx8mGfi-4" target="R9qcSIOGfT1Ncwx8mGfi-40" edge="1">
          <mxGeometry width="100" height="100" relative="1" as="geometry">
            <Array as="points" />
          </mxGeometry>
        </mxCell>
        <mxCell id="R9qcSIOGfT1Ncwx8mGfi-39" value="hasMSRP" style="text;html=1;resizable=0;labelBackgroundColor=default;align=center;verticalAlign=middle;fontStyle=1;fontColor=#333333;fontSize=13.3;" parent="R9qcSIOGfT1Ncwx8mGfi-38" vertex="1">
          <mxGeometry x="-0.3151560038782376" relative="1" as="geometry" />
        </mxCell>
        <mxCell id="R9qcSIOGfT1Ncwx8mGfi-40" value="MSRP^^xsd:Integer" style="html=1;overflow=block;blockSpacing=1;whiteSpace=wrap;fontSize=16.7;spacing=9;strokeColor=default;rounded=1;absoluteArcSize=1;arcSize=9;fillColor=default;strokeWidth=1;lucidId=7B1Od-MZ6ZxI;fontColor=#333333;verticalAlign=middle;horizontal=1;" parent="1" vertex="1">
          <mxGeometry x="1000" y="635" width="180" height="30" as="geometry" />
        </mxCell>
        <mxCell id="R9qcSIOGfT1Ncwx8mGfi-41" value="" style="html=1;jettySize=18;whiteSpace=wrap;fontSize=13;strokeColor=#3a414a;strokeOpacity=100;strokeWidth=0.8;rounded=1;arcSize=12;edgeStyle=orthogonalEdgeStyle;startArrow=none;endArrow=block;endFill=1;exitX=0;exitY=0;entryX=0.5;entryY=1.012;entryPerimeter=0;lucidId=RF1OCfXK_F4R;exitDx=0;exitDy=0;" parent="1" source="R9qcSIOGfT1Ncwx8mGfi-32" target="R9qcSIOGfT1Ncwx8mGfi-43" edge="1">
          <mxGeometry width="100" height="100" relative="1" as="geometry">
            <Array as="points">
              <mxPoint x="183" y="425" />
              <mxPoint x="135" y="425" />
            </Array>
          </mxGeometry>
        </mxCell>
        <mxCell id="R9qcSIOGfT1Ncwx8mGfi-42" value="hasName" style="text;html=1;resizable=0;labelBackgroundColor=default;align=center;verticalAlign=middle;fontStyle=1;fontColor=#333333;fontSize=13.3;" parent="R9qcSIOGfT1Ncwx8mGfi-41" vertex="1">
          <mxGeometry x="-0.2958020110584042" relative="1" as="geometry">
            <mxPoint x="-48" y="-20" as="offset" />
          </mxGeometry>
        </mxCell>
        <mxCell id="R9qcSIOGfT1Ncwx8mGfi-43" value="name^^xsd:String" style="html=1;overflow=block;blockSpacing=1;whiteSpace=wrap;fontSize=16.7;spacing=9;rounded=1;absoluteArcSize=1;arcSize=9;strokeWidth=1;lucidId=SF1OhaQ1grFW;fillColor=default;fontColor=#333333;strokeColor=default;verticalAlign=middle;horizontal=1;" parent="1" vertex="1">
          <mxGeometry x="60" y="350" width="150" height="30" as="geometry" />
        </mxCell>
        <mxCell id="R9qcSIOGfT1Ncwx8mGfi-44" value="" style="html=1;jettySize=18;whiteSpace=wrap;fontSize=13;strokeColor=#3a414a;strokeOpacity=100;strokeWidth=0.8;rounded=1;arcSize=12;edgeStyle=orthogonalEdgeStyle;startArrow=block;startFill=1;endArrow=none;exitX=0.075;exitY=0.771;exitPerimeter=0;entryX=0.5;entryY=-0.004;entryPerimeter=0;lucidId=eI1O_Iygyy8d;" parent="1" source="R9qcSIOGfT1Ncwx8mGfi-1" target="R9qcSIOGfT1Ncwx8mGfi-46" edge="1">
          <mxGeometry width="100" height="100" relative="1" as="geometry">
            <Array as="points" />
          </mxGeometry>
        </mxCell>
        <mxCell id="R9qcSIOGfT1Ncwx8mGfi-45" value="subClassOf" style="text;html=1;resizable=0;labelBackgroundColor=default;align=center;verticalAlign=middle;fontStyle=1;fontColor=#333333;fontSize=13.3;" parent="R9qcSIOGfT1Ncwx8mGfi-44" vertex="1">
          <mxGeometry x="0.4008423599611588" relative="1" as="geometry" />
        </mxCell>
        <mxCell id="R9qcSIOGfT1Ncwx8mGfi-46" value="BEV" style="html=1;overflow=block;blockSpacing=1;whiteSpace=wrap;ellipse;fontSize=16.7;spacing=3.8;strokeColor=default;fillOpacity=100;rounded=1;absoluteArcSize=1;arcSize=9;fillColor=#edf5ff;strokeWidth=NaN;lucidId=eI1O9qz4zxc3;" parent="1" vertex="1">
          <mxGeometry x="610" y="605" width="90" height="90" as="geometry" />
        </mxCell>
        <mxCell id="R9qcSIOGfT1Ncwx8mGfi-47" value="" style="html=1;jettySize=18;whiteSpace=wrap;fontSize=13;strokeColor=#3a414a;strokeOpacity=100;strokeWidth=0.8;rounded=1;arcSize=12;edgeStyle=orthogonalEdgeStyle;startArrow=block;startFill=1;endArrow=none;entryX=0.5;entryY=0;lucidId=NI1OuKBxsP~g;entryDx=0;entryDy=0;" parent="1" source="R9qcSIOGfT1Ncwx8mGfi-32" target="Asnf5PWVBuTiNA6fuec6-4" edge="1">
          <mxGeometry width="100" height="100" relative="1" as="geometry">
            <Array as="points">
              <mxPoint x="200" y="610" />
              <mxPoint x="135" y="610" />
            </Array>
            <mxPoint x="180.01999999999998" y="481.0400000000001" as="sourcePoint" />
            <mxPoint x="140" y="635.0000000000001" as="targetPoint" />
          </mxGeometry>
        </mxCell>
        <mxCell id="R9qcSIOGfT1Ncwx8mGfi-48" value="subClassO&lt;span style=&quot;color: rgb(51, 51, 51);&quot;&gt;f&lt;/span&gt;" style="text;html=1;resizable=0;labelBackgroundColor=default;align=center;verticalAlign=middle;fontStyle=1;fontSize=13.3;" parent="R9qcSIOGfT1Ncwx8mGfi-47" vertex="1">
          <mxGeometry x="0.8069094236723289" relative="1" as="geometry">
            <mxPoint x="15" y="-16" as="offset" />
          </mxGeometry>
        </mxCell>
        <mxCell id="R9qcSIOGfT1Ncwx8mGfi-49" value="PHEV" style="html=1;overflow=block;blockSpacing=1;whiteSpace=wrap;ellipse;fontSize=16.7;spacing=3.8;strokeColor=default;fillOpacity=100;rounded=1;absoluteArcSize=1;arcSize=9;fillColor=#edf5ff;strokeWidth=NaN;lucidId=NI1OlC09T_vV;" parent="1" vertex="1">
          <mxGeometry x="685" y="710" width="90" height="90" as="geometry" />
        </mxCell>
        <mxCell id="R9qcSIOGfT1Ncwx8mGfi-50" value="" style="html=1;jettySize=18;whiteSpace=wrap;fontSize=13;strokeColor=#3a414a;strokeOpacity=100;strokeWidth=0.8;rounded=1;arcSize=12;edgeStyle=orthogonalEdgeStyle;startArrow=block;startFill=1;endArrow=none;exitX=0.71;exitY=0.958;exitPerimeter=0;entryX=0.5;entryY=-0.004;entryPerimeter=0;lucidId=6I1O4U0I6-T0;" parent="1" source="R9qcSIOGfT1Ncwx8mGfi-1" target="R9qcSIOGfT1Ncwx8mGfi-52" edge="1">
          <mxGeometry width="100" height="100" relative="1" as="geometry">
            <Array as="points" />
          </mxGeometry>
        </mxCell>
        <mxCell id="R9qcSIOGfT1Ncwx8mGfi-51" value="subClassO&lt;span style=&quot;&quot;&gt;f&lt;/span&gt;" style="text;html=1;resizable=0;labelBackgroundColor=default;align=center;verticalAlign=middle;fontStyle=1;fontSize=13.3;fontColor=#333333;" parent="R9qcSIOGfT1Ncwx8mGfi-50" vertex="1">
          <mxGeometry x="0.7941117615796491" relative="1" as="geometry" />
        </mxCell>
        <mxCell id="R9qcSIOGfT1Ncwx8mGfi-52" value="CleanCar" style="html=1;overflow=block;blockSpacing=1;whiteSpace=wrap;ellipse;fontSize=16.7;spacing=3.8;strokeColor=default;fillOpacity=100;rounded=1;absoluteArcSize=1;arcSize=9;fillColor=#edf5ff;strokeWidth=NaN;lucidId=6I1OSQpG-oj7;" parent="1" vertex="1">
          <mxGeometry x="805" y="710" width="90" height="90" as="geometry" />
        </mxCell>
        <mxCell id="R9qcSIOGfT1Ncwx8mGfi-53" value="" style="html=1;jettySize=18;whiteSpace=wrap;fontSize=13;strokeColor=#3a414a;strokeOpacity=100;strokeWidth=0.8;rounded=1;arcSize=12;edgeStyle=orthogonalEdgeStyle;startArrow=block;startFill=1;endArrow=none;exitX=0.931;exitY=0.76;exitPerimeter=0;entryX=0.5;entryY=-0.004;entryPerimeter=0;lucidId=bJ1O8Z8VCAd9;" parent="1" source="R9qcSIOGfT1Ncwx8mGfi-1" target="R9qcSIOGfT1Ncwx8mGfi-55" edge="1">
          <mxGeometry width="100" height="100" relative="1" as="geometry">
            <Array as="points" />
          </mxGeometry>
        </mxCell>
        <mxCell id="R9qcSIOGfT1Ncwx8mGfi-54" value="subClassO&lt;span style=&quot;&quot;&gt;f&lt;/span&gt;" style="text;html=1;resizable=0;labelBackgroundColor=default;align=center;verticalAlign=middle;fontStyle=1;fontSize=13.3;fontColor=#333333;" parent="R9qcSIOGfT1Ncwx8mGfi-53" vertex="1">
          <mxGeometry x="0.42077378396172405" relative="1" as="geometry" />
        </mxCell>
        <mxCell id="R9qcSIOGfT1Ncwx8mGfi-55" value="NotCleanCar" style="html=1;overflow=block;blockSpacing=1;whiteSpace=wrap;ellipse;fontSize=13.3;spacing=3.8;strokeColor=default;fillOpacity=100;rounded=1;absoluteArcSize=1;arcSize=9;fillColor=#edf5ff;strokeWidth=NaN;lucidId=bJ1OlrKJahhv;" parent="1" vertex="1">
          <mxGeometry x="880" y="605" width="90" height="90" as="geometry" />
        </mxCell>
        <mxCell id="Asnf5PWVBuTiNA6fuec6-4" value="&lt;font style=&quot;font-size: 13px;&quot;&gt;PublicStation&lt;/font&gt;" style="html=1;overflow=block;blockSpacing=1;whiteSpace=wrap;ellipse;fontSize=16.7;spacing=3.8;strokeColor=default;fillOpacity=100;rounded=1;absoluteArcSize=1;arcSize=9;fillColor=#e3fae3;strokeWidth=NaN;lucidId=rx1O~R7pykx_;" parent="1" vertex="1">
          <mxGeometry x="90" y="635" width="90" height="90" as="geometry" />
        </mxCell>
        <mxCell id="Asnf5PWVBuTiNA6fuec6-5" value="&lt;font style=&quot;font-size: 13px;&quot;&gt;PrivateStation&lt;/font&gt;" style="html=1;overflow=block;blockSpacing=1;whiteSpace=wrap;ellipse;fontSize=16.7;spacing=3.8;strokeColor=default;fillOpacity=100;rounded=1;absoluteArcSize=1;arcSize=9;fillColor=#e3fae3;strokeWidth=NaN;lucidId=rx1O~R7pykx_;" parent="1" vertex="1">
          <mxGeometry x="240" y="635" width="90" height="90" as="geometry" />
        </mxCell>
        <mxCell id="Asnf5PWVBuTiNA6fuec6-8" value="" style="html=1;jettySize=18;whiteSpace=wrap;fontSize=13;strokeColor=#3a414a;strokeOpacity=100;strokeWidth=0.8;rounded=1;arcSize=12;edgeStyle=orthogonalEdgeStyle;startArrow=block;startFill=1;endArrow=none;exitX=0.676;exitY=0.996;exitPerimeter=0;entryX=0.5;entryY=0;lucidId=NI1OuKBxsP~g;exitDx=0;exitDy=0;entryDx=0;entryDy=0;" parent="1" source="R9qcSIOGfT1Ncwx8mGfi-32" target="Asnf5PWVBuTiNA6fuec6-5" edge="1">
          <mxGeometry width="100" height="100" relative="1" as="geometry">
            <Array as="points">
              <mxPoint x="231" y="610" />
              <mxPoint x="285" y="610" />
            </Array>
            <mxPoint x="270" y="598" as="sourcePoint" />
            <mxPoint x="230" y="752" as="targetPoint" />
          </mxGeometry>
        </mxCell>
        <mxCell id="Asnf5PWVBuTiNA6fuec6-9" value="subClassO&lt;span style=&quot;&quot;&gt;f&lt;/span&gt;" style="text;html=1;resizable=0;labelBackgroundColor=default;align=center;verticalAlign=middle;fontStyle=1;fontSize=13.3;fontColor=#333333;" parent="Asnf5PWVBuTiNA6fuec6-8" vertex="1">
          <mxGeometry x="0.8069094236723289" relative="1" as="geometry">
            <mxPoint x="-5" y="-17" as="offset" />
          </mxGeometry>
        </mxCell>
        <mxCell id="CU4AN1IjZ7_TAcXfEEWa-3" value="" style="html=1;jettySize=18;whiteSpace=wrap;fontSize=13;strokeColor=#3a414a;strokeOpacity=100;strokeWidth=0.8;rounded=1;arcSize=12;edgeStyle=orthogonalEdgeStyle;startArrow=block;startFill=1;endArrow=none;exitX=0.278;exitY=0.951;exitPerimeter=0;entryX=0.5;entryY=0;lucidId=6I1O4U0I6-T0;exitDx=0;exitDy=0;entryDx=0;entryDy=0;" parent="1" source="R9qcSIOGfT1Ncwx8mGfi-1" target="R9qcSIOGfT1Ncwx8mGfi-49" edge="1">
          <mxGeometry width="100" height="100" relative="1" as="geometry">
            <Array as="points" />
            <mxPoint x="829" y="576" as="sourcePoint" />
            <mxPoint x="870" y="730" as="targetPoint" />
          </mxGeometry>
        </mxCell>
        <mxCell id="CU4AN1IjZ7_TAcXfEEWa-4" value="subClassO&lt;span style=&quot;&quot;&gt;f&lt;/span&gt;" style="text;html=1;resizable=0;labelBackgroundColor=default;align=center;verticalAlign=middle;fontStyle=1;fontSize=13.3;fontColor=#333333;" parent="CU4AN1IjZ7_TAcXfEEWa-3" vertex="1">
          <mxGeometry x="0.7941117615796491" relative="1" as="geometry" />
        </mxCell>
        <mxCell id="35qdhlxiOfRnaW9zcAuj-1" value="year^^xsd:gYear" style="html=1;overflow=block;blockSpacing=1;whiteSpace=wrap;fontSize=16.7;spacing=9;strokeColor=default;rounded=1;absoluteArcSize=1;arcSize=9;fillColor=default;strokeWidth=1;lucidId=7B1Od-MZ6ZxI;fontColor=#333333;verticalAlign=middle;horizontal=1;" parent="1" vertex="1">
          <mxGeometry x="1260" y="500" width="180" height="30" as="geometry" />
        </mxCell>
        <mxCell id="bT9T9W-XSpwrbOn7UH4V-1" value="" style="rounded=0;whiteSpace=wrap;html=1;strokeColor=none;fillColor=none;" parent="1" vertex="1">
          <mxGeometry x="365" y="920" width="120" height="60" as="geometry" />
        </mxCell>
        <mxCell id="aSHnz1ryeY0uJnnrYJbW-2" value="" style="html=1;jettySize=18;whiteSpace=wrap;fontSize=13;strokeColor=#3a414a;strokeOpacity=100;strokeWidth=0.8;rounded=1;arcSize=12;edgeStyle=orthogonalEdgeStyle;startArrow=none;endArrow=block;endFill=1;exitX=1;exitY=0;entryX=0.5;entryY=1.012;entryPerimeter=0;lucidId=RF1OCfXK_F4R;exitDx=0;exitDy=0;" parent="1" source="R9qcSIOGfT1Ncwx8mGfi-32" target="aSHnz1ryeY0uJnnrYJbW-4" edge="1">
          <mxGeometry width="100" height="100" relative="1" as="geometry">
            <Array as="points">
              <mxPoint x="247" y="425" />
              <mxPoint x="315" y="425" />
            </Array>
            <mxPoint x="354" y="476" as="sourcePoint" />
          </mxGeometry>
        </mxCell>
        <mxCell id="aSHnz1ryeY0uJnnrYJbW-3" value="hasAddress" style="text;html=1;resizable=0;labelBackgroundColor=default;align=center;verticalAlign=middle;fontStyle=1;fontColor=#333333;fontSize=13.3;" parent="aSHnz1ryeY0uJnnrYJbW-2" vertex="1">
          <mxGeometry x="-0.2958020110584042" relative="1" as="geometry">
            <mxPoint x="66" y="-15" as="offset" />
          </mxGeometry>
        </mxCell>
        <mxCell id="aSHnz1ryeY0uJnnrYJbW-4" value="address^^xsd:String" style="html=1;overflow=block;blockSpacing=1;whiteSpace=wrap;fontSize=16.7;spacing=9;rounded=1;absoluteArcSize=1;arcSize=9;strokeWidth=1;lucidId=SF1OhaQ1grFW;fillColor=default;fontColor=#333333;strokeColor=default;verticalAlign=middle;horizontal=1;" parent="1" vertex="1">
          <mxGeometry x="230" y="350" width="170" height="30" as="geometry" />
        </mxCell>
        <mxCell id="E7cx0TVI2JOUevSq4ip8-1" value="" style="html=1;overflow=block;blockSpacing=1;whiteSpace=wrap;fontSize=16.7;spacing=9;strokeColor=#FFFFFF;rounded=1;absoluteArcSize=1;arcSize=9;fillColor=default;strokeWidth=1;lucidId=7B1Od-MZ6ZxI;fontColor=#333333;verticalAlign=middle;horizontal=1;" vertex="1" parent="1">
          <mxGeometry x="430" y="910" width="170" height="70" as="geometry" />
        </mxCell>
      </root>
    </mxGraphModel>
  </diagram>
</mxfile>
